<svg width="24" height="24" viewBox="0 0 24 24" fill="none" xmlns="http://www.w3.org/2000/svg">
<path d="M12 22.0001C16.1421 22.0001 19.5 18.6422 19.5 14.5001C19.5 13.5001 19.5 11.5001 17.5 9.00012C17.5 9.00012 17.4004 11.8537 15.4262 11.4409C12.2331 10.7733 16.3551 4.50308 10.5 2.00012C10.5 7.00012 4.5 8.50012 4.5 14.5001C4.5 18.6422 7.85786 22.0001 12 22.0001Z" stroke="white" stroke-width="1.5" stroke-linejoin="round"/>
<path d="M12 19.0012C13.933 19.0012 15.5 16.9865 15.5 14.5012C12.3 15.7012 11.1667 12.938 11 11.0001C9.55426 11.5533 8.5 13.8257 8.5 15.0001C8.5 17.4854 10.067 19.0012 12 19.0012Z" fill="#B1F128" stroke="#B1F128" stroke-width="1.5" stroke-linejoin="round"/>
</svg>
