<svg width="24" height="24" viewBox="0 0 24 24" fill="none" xmlns="http://www.w3.org/2000/svg">
<path d="M2.50006 12.0002C2.50006 7.5219 2.50006 5.28273 3.8913 3.89148C5.28255 2.50024 7.52172 2.50024 12.0001 2.50024C16.4784 2.50024 18.7176 2.50024 20.1089 3.89148C21.5001 5.28273 21.5001 7.5219 21.5001 12.0002C21.5001 16.4785 21.5001 18.7177 20.1089 20.109C18.7176 21.5002 16.4784 21.5002 12.0001 21.5002C7.52172 21.5002 5.28255 21.5002 3.8913 20.109C2.50006 18.7177 2.50006 16.4785 2.50006 12.0002Z" stroke="#B5B5B5" stroke-width="1.5"/>
<path d="M9.49994 9.50024C9.49994 8.11953 10.6192 7.00024 11.9999 7.00024C13.3806 7.00024 14.4999 8.11953 14.4999 9.50024C14.4999 10.3571 14.0688 11.1133 13.4116 11.5638C12.7282 12.0321 11.9999 12.6718 11.9999 13.5002" stroke="#B5B5B5" stroke-width="1.5" stroke-linecap="round" stroke-linejoin="round"/>
<path d="M12.0002 16.9998H12.0091" stroke="#B5B5B5" stroke-width="1.8" stroke-linecap="round" stroke-linejoin="round"/>
</svg>
