<svg width="20" height="20" viewBox="0 0 20 20" fill="none" xmlns="http://www.w3.org/2000/svg">
<path d="M2.0835 6.82235C2.17021 5.07258 2.42964 3.98164 3.2057 3.20557C3.98176 2.42952 5.0727 2.17009 6.82247 2.08337M17.9168 6.82235C17.8301 5.07258 17.5707 3.98164 16.7947 3.20557C16.0186 2.42952 14.9276 2.17009 13.1778 2.08337M13.1778 17.9167C14.9276 17.8299 16.0186 17.5705 16.7947 16.7945C17.5707 16.0184 17.8301 14.9274 17.9168 13.1777M6.82246 17.9167C5.0727 17.8299 3.98176 17.5705 3.2057 16.7945C2.42964 16.0184 2.17021 14.9274 2.0835 13.1777" stroke="white" stroke-width="1.25" stroke-linecap="round" stroke-linejoin="round"/>
<path d="M7.91666 8.79536C7.91666 8.09394 7.80651 7.01108 8.23001 6.37968C9.16541 4.98508 11.15 5.17034 11.85 6.53158C12.1936 7.19968 12.0641 8.13373 12.08 8.79536M7.91666 8.79536C6.83556 8.79536 6.61536 9.41427 6.45001 9.89969C6.29739 10.4458 6.14201 11.7497 6.38001 13.1784C6.55807 14.0886 7.25399 14.4889 7.85247 14.5397C8.42483 14.5882 10.8414 14.5697 11.541 14.5697C12.6251 14.5697 13.302 14.3314 13.62 13.2391C13.7727 12.3896 13.8144 10.8705 13.56 9.89969C13.223 8.92877 12.5436 8.79536 12.08 8.79536M7.91666 8.79536C9.06133 8.74994 11.4256 8.75894 12.08 8.79536" stroke="#B1F128" stroke-width="1.25" stroke-linecap="round"/>
</svg>
