<svg width="24" height="24" viewBox="0 0 24 24" fill="none" xmlns="http://www.w3.org/2000/svg">
<path d="M10.5 19.0002H10.51" stroke="#B5B5B5" stroke-width="2" stroke-linecap="round" stroke-linejoin="round"/>
<path d="M19 12.0337H12M17 9C17 9 19.0371 10.6469 19.8208 11.5533C19.9468 11.6991 20.0064 11.8627 19.9995 12.0253C19.9933 12.1711 19.9337 12.3162 19.8207 12.4468C19.0368 13.3531 17 15 17 15" stroke="#B5B5B5" stroke-width="1.5" stroke-linecap="round" stroke-linejoin="round"/>
<path d="M17.0001 5.99976C16.9856 4.2932 16.8909 3.3524 16.2703 2.73199C15.5379 1.99976 14.3592 1.99976 12.0017 1.99976H9.00106C6.64357 1.99976 5.46482 1.99976 4.73244 2.73199C4.00006 3.46423 4.00006 4.64274 4.00006 6.99976V16.9998C4.00006 19.3568 4.00006 20.5353 4.73244 21.2676C5.46482 21.9998 6.64357 21.9998 9.00106 21.9998H12.0017C14.3592 21.9998 15.5379 21.9998 16.2703 21.2676C16.8909 20.6471 16.9856 19.7063 17.0001 17.9997" stroke="#B5B5B5" stroke-width="1.5" stroke-linecap="round" stroke-linejoin="round"/>
</svg>
