<svg width="20" height="20" viewBox="0 0 20 20" fill="none" xmlns="http://www.w3.org/2000/svg">
<path d="M11.4395 2.87017L12.906 5.82742C13.106 6.23908 13.6393 6.63393 14.0893 6.70954L16.7473 7.15481C18.4471 7.44046 18.8471 8.68385 17.6222 9.91043L15.5558 11.9939C15.2058 12.3468 15.0142 13.0273 15.1224 13.5146L15.7141 16.0938C16.1807 18.1353 15.1058 18.925 13.3143 17.858L10.8229 16.371C10.373 16.1022 9.63142 16.1022 9.17309 16.371L6.68173 17.858C4.89859 18.925 3.81538 18.1269 4.28199 16.0938L4.87359 13.5146C4.98191 13.0273 4.79027 12.3468 4.4403 11.9939L2.37387 9.91043C1.15734 8.68385 1.54896 7.44046 3.24877 7.15481L5.90681 6.70954C6.34843 6.63393 6.8817 6.23908 7.08168 5.82742L8.54817 2.87017C9.34809 1.26553 10.6479 1.26553 11.4395 2.87017Z" fill="#1F261E"/>
</svg>
