<svg width="20" height="20" viewBox="0 0 20 20" fill="none" xmlns="http://www.w3.org/2000/svg">
<path d="M9.98782 12.8402L12.689 15.9113C13.6897 17.0491 14.1902 17.618 14.7139 17.4795C15.2377 17.341 15.4173 16.5923 15.7765 15.0948L17.7691 6.78825C18.3223 4.48193 18.5989 3.32878 17.984 2.76C17.3692 2.19122 16.3033 2.61437 14.1717 3.46068L4.28229 7.38707C2.57743 8.06395 1.725 8.40242 1.67088 8.984C1.66534 9.0435 1.66525 9.10342 1.67061 9.16292C1.72294 9.74475 2.57433 10.0861 4.27712 10.7686C5.04864 11.0778 5.43441 11.2325 5.71099 11.5287C5.74209 11.5619 5.77199 11.5964 5.80064 11.632C6.05547 11.9487 6.16423 12.3642 6.38172 13.1953L6.78877 14.7508C7.00041 15.5596 7.10623 15.964 7.38339 16.0192C7.66055 16.0742 7.90187 15.7389 8.38449 15.0682L9.98782 12.8402ZM9.98782 12.8402L9.72299 12.5642C9.42157 12.2501 9.27091 12.0931 9.27091 11.8979C9.27091 11.7027 9.42157 11.5457 9.72299 11.2315L12.7005 8.12841" stroke="#B5B5B5" stroke-width="1.25" stroke-linecap="round" stroke-linejoin="round"/>
</svg>
