<svg width="64" height="32" viewBox="0 0 64 32" fill="none" xmlns="http://www.w3.org/2000/svg">
<rect width="63.8883" height="32" rx="16" fill="#081F02"/>
<g clip-path="url(#clip0_745_1152)">
<path d="M31.7029 10.213L31.8789 8.57892C31.8789 8.57892 35.68 12.6264 36.0118 15.9398C36.3437 19.2532 35.9565 20.7666 32.08 25.0001C32.08 25.0001 38.8979 16.7895 31.7079 10.213H31.7029Z" fill="#78A627"/>
<path d="M32.1956 21.7973L32.0196 23.4313C32.0196 23.4313 28.1984 19.3839 27.8665 16.0704C27.5347 12.757 27.9218 11.2487 31.8185 7.01514C31.8185 7.01514 24.9654 15.2258 32.1956 21.7973Z" fill="#78A627"/>
<path d="M32.0095 23.4212H28.2033L25.2268 19.0469C24.4525 17.9156 24.0452 16.6083 24 15.296C24 15.2508 24 15.2005 24 15.1552C23.9799 13.7323 24.3871 12.3094 25.2268 11.0826L28.0022 6.99994H31.8084L29.0329 11.0826C28.1983 12.3094 27.791 13.7323 27.8061 15.1552C27.8061 15.2005 27.8061 15.2508 27.8061 15.296C27.8463 16.6083 28.2536 17.9156 29.0279 19.0469L32.0044 23.4212H32.0095Z" fill="#B1F128"/>
<path d="M39.8882 16.8448C39.9083 18.2677 39.501 19.6906 38.6613 20.9175L35.8859 25.0001H32.0798L34.8552 20.9175C35.6898 19.6906 36.1021 18.2677 36.082 16.8448C36.082 16.7996 36.082 16.7493 36.082 16.7041C36.0418 15.3918 35.6345 14.0845 34.8602 12.9532L31.8787 8.57892H35.6848L38.6613 12.9532C39.4356 14.0895 39.8429 15.3918 39.8831 16.7041C39.8831 16.7493 39.8831 16.7996 39.8831 16.8448H39.8882Z" fill="#B1F128"/>
</g>
<defs>
<clipPath id="clip0_745_1152">
<rect width="15.8883" height="18" fill="white" transform="translate(24 7)"/>
</clipPath>
</defs>
</svg>
