<svg width="16" height="18" viewBox="0 0 16 18" fill="none" xmlns="http://www.w3.org/2000/svg">
<g clip-path="url(#clip0_4487_9965)">
<path d="M7.70288 3.21318L7.87886 1.5791C7.87886 1.5791 11.68 5.62659 12.0118 8.93999C12.3437 12.2534 11.9565 13.7668 8.07998 18.0003C8.07998 18.0003 14.8979 9.78971 7.70791 3.21318H7.70288Z" fill="#78A627"/>
<path d="M8.19547 14.7973L8.01949 16.4313C8.01949 16.4313 4.19826 12.3839 3.86642 9.07044C3.53457 5.75704 3.92172 4.24866 7.81837 0.0151367C7.81837 0.0151367 0.965297 8.22575 8.19547 14.7973Z" fill="#78A627"/>
<path d="M8.00947 16.4212H4.20333L1.22679 12.0469C0.452491 10.9156 0.0452287 9.60838 -2.26617e-05 8.29609C-2.26617e-05 8.25084 -2.26617e-05 8.20056 -2.26617e-05 8.15531C-0.0201344 6.7324 0.387128 5.3095 1.22679 4.08268L4.00221 0H7.80836L5.03294 4.08268C4.1983 5.3095 3.79104 6.7324 3.80612 8.15531C3.80612 8.20056 3.80612 8.25084 3.80612 8.29609C3.84635 9.60838 4.25361 10.9156 5.02791 12.0469L8.00445 16.4212H8.00947Z" fill="#B1F128"/>
<path d="M15.8882 9.84502C15.9083 11.2679 15.501 12.6908 14.6613 13.9176L11.8859 18.0003H8.07978L10.8552 13.9176C11.6898 12.6908 12.1021 11.2679 12.082 9.84502C12.082 9.79977 12.082 9.74949 12.082 9.70424C12.0418 8.39195 11.6345 7.08469 10.8602 5.9534L7.87866 1.5791H11.6848L14.6613 5.9534C15.4356 7.08972 15.8429 8.39195 15.8831 9.70424C15.8831 9.74949 15.8831 9.79977 15.8831 9.84502H15.8882Z" fill="#B1F128"/>
</g>
<defs>
<clipPath id="clip0_4487_9965">
<rect width="15.8883" height="18" fill="white"/>
</clipPath>
</defs>
</svg>
