<svg width="24" height="24" viewBox="0 0 24 24" fill="none" xmlns="http://www.w3.org/2000/svg">
<path d="M19 10.5004V10.0003C19 6.22913 18.9999 4.34348 17.8284 3.17191C16.6568 2.00037 14.7712 2.00037 11 2.00037C7.22889 2.00037 5.34326 2.00043 4.17169 3.17196C3.00015 4.34352 3.00013 6.22909 3.0001 10.0002L3.00006 14.5004C3.00003 17.7878 3.00002 19.4316 3.90794 20.5379C4.07418 20.7405 4.25992 20.9262 4.46249 21.0925C5.56883 22.0004 7.21255 22.0004 10.5 22.0004" stroke="#B5B5B5" stroke-width="1.5" stroke-linecap="round" stroke-linejoin="round"/>
<path d="M7 6.99963H15M7 10.9996H11" stroke="#B5B5B5" stroke-width="1.5" stroke-linecap="round" stroke-linejoin="round"/>
<path d="M18 18.4996L16.5 17.9496V15.4996M12 17.4996C12 19.9849 14.0147 21.9996 16.5 21.9996C18.9853 21.9996 21 19.9849 21 17.4996C21 15.0143 18.9853 12.9996 16.5 12.9996C14.0147 12.9996 12 15.0143 12 17.4996Z" stroke="#B5B5B5" stroke-width="1.5" stroke-linecap="round" stroke-linejoin="round"/>
</svg>
